<mxfile host="app.diagrams.net" agent="Mozilla/5.0 (Windows NT 10.0; Win64; x64) AppleWebKit/537.36 (KHTML, like Gecko) Chrome/134.0.0.0 Safari/537.36" version="26.0.16">
  <diagram name="Page-1" id="ClOj92HB9ACygorJzbsy">
    <mxGraphModel dx="1562" dy="818" grid="1" gridSize="10" guides="1" tooltips="1" connect="1" arrows="1" fold="1" page="1" pageScale="1" pageWidth="1169" pageHeight="1654" math="0" shadow="0">
      <root>
        <mxCell id="0" />
        <mxCell id="1" parent="0" />
        <mxCell id="u3QGLT7VC1PCyvnw0tkP-1" value="Actor" style="shape=umlActor;verticalLabelPosition=bottom;verticalAlign=top;html=1;outlineConnect=0;" vertex="1" parent="1">
          <mxGeometry x="160" y="295" width="30" height="60" as="geometry" />
        </mxCell>
        <mxCell id="u3QGLT7VC1PCyvnw0tkP-13" value="GetStream Provider" style="shape=folder;fontStyle=1;tabWidth=110;tabHeight=30;tabPosition=left;html=1;boundedLbl=1;labelInHeader=1;container=1;collapsible=0;whiteSpace=wrap;" vertex="1" parent="1">
          <mxGeometry x="630" y="150" width="370" height="250" as="geometry" />
        </mxCell>
        <mxCell id="u3QGLT7VC1PCyvnw0tkP-14" value="" style="html=1;strokeColor=none;resizeWidth=1;resizeHeight=1;fillColor=none;part=1;connectable=0;allowArrows=0;deletable=0;whiteSpace=wrap;" vertex="1" parent="u3QGLT7VC1PCyvnw0tkP-13">
          <mxGeometry width="370.00000000000006" height="175" relative="1" as="geometry">
            <mxPoint y="30" as="offset" />
          </mxGeometry>
        </mxCell>
        <mxCell id="u3QGLT7VC1PCyvnw0tkP-25" value="" style="shape=image;verticalLabelPosition=bottom;labelBackgroundColor=default;verticalAlign=top;aspect=fixed;imageAspect=0;image=data:image/png,iVBORw0KGgoAAAANSUhEUgAAAYwAAAGMCAYAAADJOZVKAAAABHNCSVQICAgIfAhkiAAAH8pJREFUeJzt3T9wW9eVx/GDnRRLNSahzlQi0JbSmaKcGdOVBaoTi4imtgs3oj3rVIlIurGrEHRlbyFRShdnaMqjLSVLLqhtVgJdhdkZi6K3CmURjqmtwj9uhFSLLQ6u8QjivXfeP/wRv58Z2vpH4PEBeL937z333pz8tlYTAABC/FOnDwAA0BsIDACACYEBADAhMAAAJgQGAMCEwAAAmBAYAAATAgMAYEJgAABMCAwAgAmBAQAwITAAACYEBgDAhMAAAJgQGAAAEwIDAGBCYAAATAgMAIAJgQEAMCEwAAAmBAYAwITAAACYEBgAABMCAwBgQmAAAEwIDACACYEBADAhMAAAJgQGAMCEwAAAmBAYAAATAgMAYEJgAABMCAwAgAmBAQAwITAAACYEBgDAhMAAAJgQGAAAEwIDAGBCYAAATAgMAIAJgQEAMCEwAAAmBAYAwITAAACYEBgAABMCAwBgQmAAAEwIDACACYEBADAhMAAAJgQGAMCEwAAAmBAYAAATAgMAYEJgAABMCAwAgAmBAQAwITAAACYEBgDAhMAAAJgQGAAAEwIDAGBCYAAATAgMAIAJgQEAMCEwAAAmBAYAwITAAACYEBgAABMCAwBgQmAAAEwIDACACYEBADAhMAAAJgQGAMCEwAAAmBAYAAATAgMAYEJgAABMCAwAgAmBAQAwITAAACYEBgDAhMAAAJgQGAAAEwIDAGBCYAAATAgMAIAJgQEAMCEwAAAmBAYAwITAAACYEBgAABMCAwBgQmAAAEwIDACACYEBADAhMAAAJgQGAMCEwAAAmBAYAAATAgMAYEJgAABMCAwAgAmBAQAwITAAACYEBgDAhMAAAJgQGAAAEwIDAGBCYAAATAgMAIAJgQEAMCEwAAAmBAYAwITAAACYEBgAABMCAwBgQmAAAEwIDACACYEBADAhMAAAJgQGAMCEwAAAmBAYAAATAgMAYEJgAABMCAwAgAmBAQAwITAAACYEBgDAhMAAAJgQGAAAEwIDAGBCYAAATAgMAIAJgQEAMCEwAAAmBAYAwITAAACYEBgAABMCAwBgQmAAAEwIDACACYEBADAhMAAAJgQGAMCEwAAAmBAYAAATAgMAYEJgAABMCAwAgAmBAQAwITAAACYEBgDAhMAAAJgQGBHkRCSX0/8DwFFDYBidHRR5cEXk/26IPF0QmR7t9BEBQHv9pNMH0AvODoo8mBHp79PfF/Iin03pr5fXOndcANBOtDBCDOVF7vymERZen02JjJ1u/zEBQCcQGAGG8tqyKOT9/82d9/TfAcCLjsDwMdAXHhYi2vJ4MENoAHjxERgt5ERbDmFh4RTqLZGBFt1WAPCiIDBauDopUow4NlHIa8hQcgvgRUVgNCldEJkdi/e9xdMiS1PpHg8AdAsCw6N0QWR+PNljTI/q46B75QK+APhjHkbd9GhwWGztiAwdb/x+r+o/ZjE/LvJDVeRaOdVDRApmiiITw63/bv2ZyNztth4O0FMIDNGJeZ8FdCXtVUXO3xDZWmj82eQftfvJGyJeVy+JVHZFvthI91iRzNnB6ONTANSR75Jycy381ETk/HW9+HtVdjVE9qr+37s0JXL2RCqHCQAdd6QDw4VFq1nczrv/oV0VrYSFRn8fE/sAvDiObGBYZnEv3BdZ/nPw46xvi7wf0O/NHA0AL4ojGRgDfbo+VFhYlFZsj7e8pv/eTyGvK90SGp130mfMCUC4IxkYVydFRgb9/355zR4WTmklODRGTuhAODorqPsRQLAjFxilCyLTb/r//aNtkXduxXzsleDlzpmj0VmFvAY3gHhil9UO9IlcHtU7tu92RParnq9/eKqKaoe/t8UftUXYxLytHZHJT5M9xzu3RM68LHL2p63/3j1/KaA1khXfiWk5fR37+0T6/1n/77rrTh7X13J1U2Rr1+8BegObXgHJxAoMy4CxU2kOk6oGjEj0oAn441CzxfCwOH/jcPlsHOf/IPL1B/5zNObH9Xnibr4U98Lff0zkpb7Gv3F/VzD061d2NUwfbcc7Zp/DbSntG4qciMynMIs/Kznf38iBk5HkvLTjOdJmOeZuOl6v3KFfSGrHnOVjh4kVGEtTEVZyjTnI6A0aEb1g/VAV2X9+MGhERCp7nt+3OGMTwyLXAsYP3MS8NMJCRI/j/A0d6PYLjWuXRB4/0yqrQzK88MdVyOvYz9iNZI+Ty4mMvCxy7rQe78l8Y1xhvyry3a6ek8fbWs4c9QPQfJEpvipy+U1tDUf+/hZaHU8u4BtrAT9ATkSKp0QunhE5M6jnuPk1rOzo+/LxM/313Y1o79Nc/RxcPKPnemQw+DlW/ypS/lY/Z524GOdE3w8jg/7HvF9tHPO9DZHVJ/r7oOPNBbywfq9R0OsqtdbPN3BM5PIb+v5uPu71bT3muxsiX23qr63nOCf6uQ977PKmPnacz47tOH4b9JZurfaHDI4kJa2CZmLYf7CzJnpxL2+GP7b35x6aD//gFvIiX3/oXx21X9U3Tzsv/Enlfhfv+wb6dFmOmTH7wHNlV+T6Q5F732gLMEwhL/LwSuP3/ceiD3JXQp5nsSxyvXzwz5Z/paHUytxt/R6vnGj32O/H7TdeztmP/ecFecU53153N0Q+/7PI3W/aExwuPH/9ZvDn1U95U+Tmmn41H+/ZE9ribyXo8x/Uhb28dnCsMyciE2dEln5lP/blNZGPVsK7egeO1V/LYrTPTmlF5PMW5yOJWC2MoHWUOi3qxfb9O7awiMN14zy40vpGpb+vt/rV47TAkly4CnltiV27JLKwohfqoJn1IsnDNuz7o77vLw4fDIyhvLbQ4yxPUtkND4ukQeFMDOuXm5xqCew4XFD8fjzZki3F0/o1P374eIunEh/mIZff0PdkZVdbL9cm9bxHMT2q59i9t5sv7DnRIo0oe/M4hbzI8pQ+x7u30ht/jFUl9VHEktNutXBfZPFhts9R3tQX7EVwM+KYy9gpbWHNjycvZ50f18fy6+LrVu5CJqLrWD2YiX9hDLuxSfN8O4W8yNOS3m2nvZrvQJ92cyY5J83c8c7XqxFzIvJLn8Umk8jl9DwPHNPWS9SwcPr79Ibo6qWD5zcn2mp9cCV6WHgVT4v8V4o7gsYKjMWyyMOM7srbJcrEvKTCJvb1goeb0c7X9Ki9MMLKXQx6qVUmone4Q/nwyaJh/AIjJ3pBT/t8e82P651uWj0LrnAm7t4zYUrjGhq5XHaLTU6Pitz5t+A5XVazxYN76UycEfksQvdWkKF8eqERex7G5KfRmznrz/RNX94U2fq7yN5zHXCq1QeQvF9Z+mKjfWHhlFYO92Wnqfn8/Xhea3qet/6uA2PlzehdS1u70VpJ06PBq/8m9dmUyFgPrTg7M5bOxXy1RWDkRO/S21EBNjGczq6SrqWVxoU2SGlcL+hZSjOMLo9qcAwd17GQNA3lRW6/l/xxYs/D2K/qRcQ7yBhmZNAzOPUX+bHSoHDcUxXUNAD8s+MtKoa83RK5lr/09Wi7c11Ec7ft4xa1Q7+oD+Y/P1yC/Lcd7dv/wVOi7P6ustOoPLk8qn3qUS9crq/WYiifbVg4d94Tef3j3pgb4t6/Saw/a/0aXJ3M7i69leJp7T6Ju2+IZcHPNF3MoDsqKznR4L8YY9Df4uwJbYkmmQOWaD+M8qbeNc8W7d/j+nSvXWpUYpSfiFRiPH9z0MxfCJ7J6ybm7YcMnGZp7nbwxD4RvZNcLB++8EeVy2m/9pUxPedx3oSL5WhjF0FLxTerST0A6yHoXk/JhYd/f5824ZOW+XaLWv0/7nX+8Xwc03Ox+tfD3xN1O2Hvc7jPwI83YIZz7swWtbQ9aos5Tli490j5SeOYC/VSW3duuon3HFf2RAoD0c5vf19wq8WdD/c+8b5HLK4UG9eWOBJvoDR3W+Tcq8EXwPVnIicHDv5g7k57elQvigsrtnpqL+9FtBQWFrvpzrWIa78aPrHv3Gkd97gbY/OlnOib6PIb/pUy7k23+sR/9zkRDdiFiOMWltbL3nORG6uN7kmvQl4/ML+/ED7A7W4+sqpya4e959ravrehXYbNH+SREzqgevebg38+dsreDVUT/axcL2v4Nz+Hu0hdKer/LRef+XF9rLCqNa8o3XLe8+L3+hZPa6v58hvB8yzaZe95vZT1LwfPcX+ffs6uFPX1jHOotZpeD9znxmvkhIb4rw3nYeCY/tu4rYxY8zCahc03qOxq/fjEsMivR+tlbj6Je3dD3yTurtZycGF95ntV3QTJUr8eJOo8jCBu2XO/gSg3+c8ys7q5y8nvDqVW0zs1d34ffRj8AY76Mz76IHytJuuM+kJe+5+DbkREdJ7G7J3G93h3RczCwsrhD1vQPAw/NRH5qF6lF/Vur78v/LVz9qqN57EYGazv4WKoRmueixAkbFker4f1ykLre8/6Xmkl7jyMZo+2tfci7Jhni4crokKPsSYyd+fw/J9m1sHtrR2RV0oRDsAjlcAQ0RMRNJt6sdzo9yzk9cI2U9S74VYnz81avPEweNbi2UENKz810Rcyzt36ocdKMTBE9OIatOx5ZVeDzq+f3jtT2K3rdeiYRVsTN1YPXpzCPgxRq8gsF+vKrshYi90L/fT31UtpfT4A7s7Zvfn7+/y7R/v7tMUVdnw3Q/Y/KT85fHGJGhiuazTuDcw147hF3Ofp7xN58DvbBdg6gdUa5EmqF11lVBRpBEbUZYWiFIXURG9SrFWWA/XPTNDNRK2mn5k416/U9vReLIu8dVrkbZ8ujtmiTln/or60wfWyfrlm5blTB8OjkG90Wa1v679t7rJypYpB3r+TTlhkYX07eGKfa4V4Q8MtETBzTs9bq4lmLiT8mvQTw8EfhDhVZJa73esPo71JvYUV7jXff64XwK/qF27v0ir7Vf+mdiFvCIyd7BeFTLpmWSFvD4u4z+O6TS2hMVtstPD8lIx36UlL3d33Rg2NJGr1541ynm+u6WfXUmG1/n20kvy9qrb6AouRcnoNiFO1mVpgiOiHeyTgjnBpSmS9qbLF2489Pdq6y2rkRCORl9dEvnwssv6/4ZNa2jExL6nypu7Y59c6K+S1i2DyT7oGkxvAbsV1OX1eH/9o1dUxlA9uCW7tBu8g6McywzrOQFu5fpOxuqlrHfX0eEUKa5ZZL75Jn2e/qu+5Rx8GD1JfflND1u+1HRm0reO1WE6n1L20IvLWqfaVXVd2dMwiiprotSksMGoS76K+Wr+m+j1+TkTOxFzmP9XACCu1DatsWV7TL+/AZ3OXlWt1hEnrDdgOi2VtNfjdGY2c0AlrrdREpPJ3kc//29YffvVSSMhGvFuKIm6pYNIl57vF3O1k57a/z1YmunA/ndfQreUV1Brt79MijXs+rXhTa2g3WnFFmMlPtQusHaW7cW9gVutVX4HHWBP58puAvw/weDs4kE7GnBOU+gZKrtTWT/G0yFwx+DHc0t+vlPROaXlNm9jWwZa7G/HrxDultBI+qOXURCsyFst6fl5Z0O8PC4vSheCqqKgltF6W1sPMWPeuQZa1ym78c+tYFuXb2k33Rslyh+v3nirkba2LBcN7N4r9qgZd1mqird643xxWKu8tJY740LL6JPjfxJ1EmsmOe3O3g5cOuXrJ3mQsb2qf3CuleutlszEz3M9Xm1rl0QWVdiY50Quptz6+lVqtUUHySknPs/UOZygfvh9IkpC1HIfb2zytdW16yb3HyR/DevFN0341/LX1CwxLH/1WCkHayvVye+ZbxQ4M0VZAkB+ex3/ssDCK2/rKbIvWd28F12gvTUU/6OW1+h11qb4Co0+r4+ol7cJZmtJ69Zx0Z3jkRI/v2iWRpwv6/+ZzUhNd1mPhvkj+g0aLK8qHob8veEKdqxRJwnJhEalXhs1oa6eXQj2p5nkUcYSVLO9Xs7n4+nU3OW7/imam7rOMuo332tHKMLQSkkg0BvWP4L+PGxipjmF4VeqDp37lY4X6HW+cu1rXZbW85l9lJXJwYmB5U+vRo0wMzEIaVU5RzV8IboK+fyedPu+ba7a7Svfaz4/rz7Za/yp/K74b0/S6pBeW4qnwD3lW1YCWstyRE4f/nWX/9FbrY6Wl/ERkPruHT6Qm4Z+5Hzq4IoWfzAJDRC/oZ07418bHXWLAq7nK6pfDIhOvyYEqK2+JrlvLKuqs8iTcxLqJ13SDmLAqpxtlPc40mtTTo8EDj8tr6VWSLa9plVuUChXv8t8i+nPf29BNk9od7p1eBSCIpQqtkNeWW9osd6PNLQzvenB+/NbHSotpYBmRZBoYItrkvDjs3289P64XiDQWkbNUWXkvUMtrjbWsRLLZS9oysW79e5Ev/yferN8goeMWKVeniGhXYdDWtGG8a42tb2u4dyI8uo1lkLI5fNupOdAsK9F+l2F3joiI1PQ91Klz8iLKPDD2q1rm9vUH/rvOLU1pH3paFwRvl5Vbi6ddXVad6HLyE7b3+vsJyzxbcTu0JQkNZ+SEfl27dDDcj2JwZLXPRVqa6/r7j4V/T8v97FP23Y6IEBipyWzQ22t9O3gymFsyOavn9lZZfbFxuMrKdVk9LemFbnpUF+myDsi6Kqe3X9Pv3/1E7+ybw8JVOU1+Gr3KKarSheA7q4X72fV5V3ZFXv9EL/JpXdzdhkxLU723695R0Nx6tnQDZV3FZBknQDSZtzCcxbKOL/j1b88WRb7cyHYnv6RdVs063eXkx1JCm/Wkxv36EgX3NnTPBr81w6JyrUK3vs5RbG10ozjjBJ3cZgDxtC0wRPQOP2hV26Up3RQnypLJccTpsmouLZwparC0qgRpV5dTKwMhJbRueYp2ubuhX96lqKPsveBnflzkpWPacu2F0DgKF8f+vmg/Z9bdbK7YBOlpa2BU6lt9fuGzVWAhr6HxdhuXgnBdViKN5ddbVVk1b/LeqvIoiyqnqK6FLP3xUUrLRkTlqtkWVjQ8wpa5t3DVd70wqz/pe6EXAscbGJbjbcfF/CTdl6lqa2CI6N1m0C59E8P6d1nuf+3H3Q27LquZoq2WvLypJXzt6nLyMz0aPBs4zRLauLytO5F6F+ApXek4zi5qs0Wt5e/WFYnTYg35dDYrSM4yoG0pFU6q24sFek3bA0OkvaW2UeVE5Id/6BvN+oYuHNclAgaO6WSbTnxmO1FCm4Yf59HUl3D2TsS0Dm677X5fZJbAWF6LthR22rzHaLlxOpdx9VL/MdsNH+w6Ehiu1NZv86D+Pl3S+/VP2juxLmzHOj+uy2qm2JgYeO8bHcdoV3iEbX8ZZQezTvJOxCyNa2FCWIvDtQh7eenzMJafbWLYvgNe1var2soIumC7rWGzet2Yf5G+tpTVtrK+LfJRwB3vyInsSm2dXO7wWk7NbzK3MmzzndvCSuu1rIqndTmU3U/at5ZVKWTpj4X7vXkxLa3oTYOlCMIyUayXuQtwELd3dLewLPsx8Vo2z52TeoEFUtWxwBDRcYqgMtrZYvoboeREuzpKF/Si/mBGWwbeAbjm5cPzHxwuQ3XLr7v5Bq3Cw80deLrQmD+QdnCcHex8CW2WwubwOHE3hPHKfOZxQmGLAIoEb47VbpYFFy+/mc3gd+G4bfFDRNPRwBCpb3YS0FWyNJV8DwU3sW62qN1gT0t6kT20Mmx9Yt3cbfvEurgTA9MIj0LIFrXtLqHNimV84ijss2E5D1mtJxWHpVKwv8+2b3ZU3XIOXjQdGcPwCtulz21R6rdLX5BcTqT4qi7457f5TNQd64K0ey2r0nhwV1TSHd6SGqh3kexVX/xB6XZYfxa89aYzP65Ve1lOgrUK27FPJP1Ju26rZ6Sv4y0MEdsufX5luM1yot003i6n6dHgLifrjnVW3h0Ds+qymimGl9BmsTdCGNeaK11o/Fyt9vmIwtIvH7Z8uCU4e2GSl7UKamkq/Y2qciLy9nC0lvFi2fa5Sut4w6oFkUxXBIaI3g0/+t7/7+fHRc769FM3dzl9/WFwl1OcHevi8nZZTX4a3mX19QfhXVZDeW1d+OlECa0bG3IFBN7zX0jwIbZeACyBEHbhesmwYF6nlTdtd+KFvN6M+H1mosqJLvFy5z29uFtDw7pdqutJSBIaQ/nwakEk0/EuKa/JP/kvHeJKbc9+3Pjguy6nK2PaCsm6yymp5omBV86JjPz04Idv5ERj06nlNZEvHzcGD13IPJgJvhue/GP7u6LuvBfcEpgt6paTUdZ/inIBsHR5VXaCyzx7pQwzbIkdp5DXG5Ak62659dKu/kujEm16tHEclsdcLGu3cFgYuN0Yz9/QFnnUY1z6V8Iia13TwhDRi1xQqa27Ux07dbDLqXl8Iusup6Rcl9Xr/x7eZXXnN42uHdfVFlZCa9khrRPmx/VCF1Rq7O3S+vpD2wXgkXEjnrA9lAv59KvyshD2OWk2P67voelRW4m3+zdjp7TF/mDmcNny9Ki9peHGKS0KeW1ply5owAQ9vnuvXJ2kZdEuXdXCENGL/Funta+0ldmi/3hGN6zlFJV1LSu3EGKQR9udK6G9XraNNYwM6oe7sqs/++PtRjnryeNaHuvXWvR9buNyJ+vPRC6H/JulKb24ua5KF+LeC1c3rL6xWNZzFfaecAp5bbm6bXG/fKyvQWVPPyfuYjvyssi5n4tcfC18pYMoLY3ypt7MzBurl+bHteS2+VhF6hP+XhV56+f+xSzIRtcFhoi+AUc+tPdnrm/rzOrrTV1OWU6Wy2Iy3r0N/SrkddkE61pWIjpuMdnGRRubucIFa3FCIa9fSSeaRRncv7sRPk+hkNe76vKmLvey/1z/3C1iNzIoMnenOyZCvnNL5MzLImd/av8e682H1fSofuYsC0CWVkRO5qOFXJrHiuS6MjDCSm2b9ffprM52zux8YDy2pKx7Ei+sdH7pj4UVvTNt1wZHWzvRBvfdzoqWsYqg7U4nXuuOwBAROf8HkQe/ixYaadp7LnLzz/Z/71rT7QqBverRmKPTLl0ZGCLR7ljbseplNzynn886VELbbL+a3vasYbZ29LmihuTC/eSD2xfPiMzeSfYYadmv6ljYtUvaIs2yVd0s7mvwzi09bmtrNK6tnfqNZ8D+MIimqwa9m83d7o7JR91sa8e2dEa7uD29o1S5RBX3QiUSPufHwnWndZO52/o+2Hue/XPVRM/h65/Eb9XO3a5XbmU0IPS0/h5Z/bY3xjJ7RVcHhojeIWS9A18vO3+j+z4Qbk/vxXK6F4Q0LlQijYUjk+jGElx3btLcS92rJnoDd/6GXvCTvu9KKzo/6dH36R1vTXSu0y/ce6TWPd2HL4KuD4zKbnfdQXeThQ7tnmfhBkJfKelFJklwuAmXaV2oXNdZktDIei+HuCq72uXz+sf14KgluxjX5OD5P38j3QtwZVe71N691bq0PMpxPvpej2/y08Z7pCa2VXNh07VjGF7LazpmYNkb4SioiY5Z9MIqtK6Lys2hOfNyvfKr/kL6lavuP9cy2K8y2smwsqthVhrXCZSWnf5q9f/sV0W+69KgdtafaXC4zcouDje2xBVp/bPWPL/Yr+pj3NvQ91rWrVi3Dpt3A61CXny38HXHuv9cJ7Z+vuYfZIHzkrqhRrqFpEGf1c+Vk992y6aO4dx2nkdd+UlvN7P7+zQ0mscC9qq6Y+H6M52V3a6uNjfz/pfDIoWBg6XM7jhWv9U5I+Unh9etmhgO34+j1MGd8Bx33s8MauXQS8dEXqpXEP1tp3H+W/2MnVDI6/G6c/uzeiHF33bq83ie2baC7e8Lnrt18y+tW+ph15taTeT6avz3adDj10QXkIz7OQ/6mUX02Bf+M/rj9lRgAAA6p+vHMAAA3YHAAACYEBgAABMCAwBgQmAAAEwIDACACYEBADAhMAAAJgQGAMCEwAAAmBAYAAATAgMAYEJgAABMCAwAgAmBAQAwITAAACYEBgDAhMAAAJgQGAAAEwIDAGBCYAAATAgMAIAJgQEAMCEwAAAmBAYAwITAAACYEBgAABMCAwBgQmAAAEwIDACACYEBADAhMAAAJgQGAMCEwAAAmBAYAAATAgMAYEJgAABMCAwAgAmBAQAwITAAACYEBgDAhMAAAJgQGAAAEwIDAGBCYAAATAgMAIAJgQEAMCEwAAAmBAYAwITAAACYEBgAABMCAwBgQmAAAEwIDACACYEBADAhMAAAJgQGAMCEwAAAmBAYAAATAgMAYEJgAABMCAwAgAmBAQAwITAAACYEBgDAhMAAAJgQGAAAEwIDAGBCYAAATAgMAIAJgQEAMCEwAAAmBAYAwITAAACYEBgAABMCAwBgQmAAAEwIDACACYEBADAhMAAAJgQGAMCEwAAAmBAYAAATAgMAYEJgAABMCAwAgAmBAQAwITAAACYEBgDAhMAAAJgQGAAAEwIDAGBCYAAATAgMAIAJgQEAMCEwAAAmBAYAwITAAACYEBgAABMCAwBgQmAAAEwIDACACYEBADAhMAAAJgQGAMCEwAAAmBAYAAATAgMAYEJgAABMCAwAgAmBAQAwITAAACYEBgDAhMAAAJgQGAAAEwIDAGBCYAAATAgMAIAJgQEAMCEwAAAmBAYAwITAAACYEBgAABMCAwBgQmAAAEwIDACACYEBADAhMAAAJgQGAMCEwAAAmBAYAAATAgMAYEJgAABMCAwAgAmBAQAwITAAACYEBgDAhMAAAJgQGAAAEwIDAGBCYAAATAgMAIAJgQEAMCEwAAAmBAYAwITAAACYEBgAABMCAwBgQmAAAEwIDACACYEBADAhMAAAJgQGAMCEwAAAmBAYAAATAgMAYEJgAABMCAwAgAmBAQAwITAAACYEBgDAhMAAAJgQGAAAEwIDAGBCYAAATAgMAIAJgQEAMCEwAAAmBAYAwITAAACY/ERqUuv0QQAAut//A+ZA/HiC00gdAAAAAElFTkSuQmCC;" vertex="1" parent="u3QGLT7VC1PCyvnw0tkP-13">
          <mxGeometry x="288" y="168" width="80" height="80" as="geometry" />
        </mxCell>
        <mxCell id="u3QGLT7VC1PCyvnw0tkP-26" value="Dashboard" style="shape=folder;fontStyle=1;tabWidth=80;tabHeight=30;tabPosition=left;html=1;boundedLbl=1;whiteSpace=wrap;" vertex="1" parent="u3QGLT7VC1PCyvnw0tkP-13">
          <mxGeometry x="35" y="60" width="80" height="60" as="geometry" />
        </mxCell>
        <mxCell id="u3QGLT7VC1PCyvnw0tkP-28" value="Clerk Auth Provder" style="shape=folder;fontStyle=1;tabWidth=110;tabHeight=30;tabPosition=left;html=1;boundedLbl=1;labelInHeader=1;container=1;collapsible=0;recursiveResize=0;whiteSpace=wrap;" vertex="1" parent="1">
          <mxGeometry x="280" y="240" width="210" height="150" as="geometry" />
        </mxCell>
        <mxCell id="u3QGLT7VC1PCyvnw0tkP-29" value="Auth" style="html=1;whiteSpace=wrap;" vertex="1" parent="u3QGLT7VC1PCyvnw0tkP-28">
          <mxGeometry width="110" height="30" relative="1" as="geometry">
            <mxPoint x="20" y="50" as="offset" />
          </mxGeometry>
        </mxCell>
        <mxCell id="u3QGLT7VC1PCyvnw0tkP-30" value="" style="shape=image;verticalLabelPosition=bottom;labelBackgroundColor=default;verticalAlign=top;aspect=fixed;imageAspect=0;image=data:image/jpeg,/9j/4AAQSkZJRgABAQAAAQABAAD/2wBDAAMCAgMCAgMDAwMEAwMEBQgFBQQEBQoHBwYIDAoMDAsKCwsNDhIQDQ4RDgsLEBYQERMUFRUVDA8XGBYUGBIUFRT/2wBDAQMEBAUEBQkFBQkUDQsNFBQUFBQUFBQUFBQUFBQUFBQUFBQUFBQUFBQUFBQUFBQUFBQUFBQUFBQUFBQUFBQUFBT/wgARCAIABAADASIAAhEBAxEB/8QAHQABAAEFAQEBAAAAAAAAAAAAAAgDBQYHCQQCAf/EABsBAQACAwEBAAAAAAAAAAAAAAADBAIFBgEH/9oADAMBAAIQAxAAAAGVIAAAAAAAAAAAAAAAAAAAAAAAAAAAAAAAAAAAAAAAAAAAAAAAAAAAAAAAAAAAAAAAAAAAAAAAAAAAAAAAAAAAAAAAAAAAAAAAAAAAAAAAAAAAAAAAAAAAAAAAAAAAAAAAAAAAAAAAAAAAAAAAAAAAAAAAAAAAAAAAAAAAAAAAAAAAAAAAAAAAAAAAAAAAAAAAAAAAAAAAAAAAAAAAAAAAAAAAAAAAAAAAAAAAAAAAAAAAAAAAAAAAAAAAAAAAAAAAAAAAAAAAAAAAAAAAAAAAAAAAAAAAAAAAAAAAAAAAAAAAAAAAAAAAAAAAAAAAAAAAAAAAAAAAAAAAAAAAAAAAAAAAAAAAAAAAAAAAAAAAAAAAAAAAAAAAAAAAAAAAAAAAAAAAAAAAAAAAAAAAAAAAAAAAAAAAAAAAAAAAAAAAAAAAAAAAAAAAAAAAAAAAAAAAAAAAAAAAAAAAAAAAAAAAAAAAAAAAAAAAAAAAAAAAAAAAAAAAAAAAAAAAAAAAAAAAAAAAAAAAAAAAAAAAAAAAAAAAAAAAAAAAAAAAAAAAAAAAAAAAAAAAAAAAAAAAAAAAAAAAAAAAAAAAAAAABbMsbmwq136OyWsPRJBsdhd+qWrsKt0AAAAAAAAAAAAAAAAAAAAAAAAAAAAAAAAAAAAAAAAAAAAAAAAAAAAAAAAAYNYjzPXWprb2mjyixeep0Ohr1KFRRr/dCpHUr1PPUjq3vOdX/etnkR6o9bN5fss4Gk6gAAAAAAAAAAAAAAAAAAAAAAAAAAAAAAAAAAAAAAAAAAAAAAAAAAAAAB+fuidjH7tTeep9Q0tepQ+7ND0fdCpHVr1PPUiqV6lD7jq+j7oVI6lep56kdX0VqG5NZZyD3Hz/AOqhjmAAAAAAAARY0LspOkLm9MvDzawoYAAAAAAAAAAC0eru5vNtL0hQZnNRwCtiAAAAAAAAAAAAAAAAAAAAAAAAAAALHIwTQ37S+wVPR90Kl+lX+6FSKrXqfO0tfDrP3SJv/LWo0UZOqvkV6kj8D2Or1hW9G37et+sxPn3ehDYAAAAAAAAAiVHuQke+nsJuQjm5B5t0c/AAAAAAAAAAAs94s+Tm8OvtZ/PqAs+tDCGsjAAAAAAAAAAAAAAAAAAAAAAAAAAARx3zDjtsv37oVPosVep56kdX0X23ym5yPzZEfML4RZAAAAAAAAAAHzQPSAACJUe5CR76ewm5CObkHm3Rz8AABT+CuAAAAAAeA99nulryc3h19rP59QFn1oYQ1kYAAAAAAAAAAAAAAAAAAAAAAAAAAGpY+bP1n9etUf36+Ogwq/dC+w1d67N+fr4lkLFV9uOkI44fu5pE5NFBZy6QXnm/OfURZyKOAAAAADw45CG7nv7SmBN3LWolnK5bI1KjTU3JzH2rq4pyLXdNPFEqPchI99NYTchHNyDzbo5+B5rTB63lvHRmEN7N9/BZyvm2NFofOg2Z8zpgaaLeI1sbnR0X5jbeXIsj11ku1k6JR611pLWx5TixtZegd+sN+5atzeHV2c/n1AWfWhhDWRtEXuE+0kydifv3M2czaxjPufgClgAAAAAAAAAAAAAAAAAAAAAABFHF73aPt+y89P0U7kVHbOqd7aSDc4+PwoaTL5sbOS2jfTAM9wJi6cseyHkaoeAAAFrukWZ/dIY2dTZerJZw08YoZNLJqooVan6W4/N7zmq7SkXsJKO3TnYIlR7kJHvpJ03IRzcg827TqaP0cMeNenVWXuvk6auMV71LRqooE686cxqu5xbq0m1knvsKDU5eZruY3TnmNdzDcyn1ImLyOjoFeNfhaL9cbdp4ubw62zn8+oCz60MLXl1gbh55PC/ehnqTese8tFCGrjAAAAAAAAAAAAAAAAAAAAAAAAiPaMqxn7XuKFOv8W4/PvTR+09NWkGPkVRzY6Tw22cmjxvpgBnuKbmQHI1Q8AAAOdE/OcO4lGTbiWaGwzkaoYgAAIlR7kJHvp7CbkI5uQebdhHNznRSwx0b6abO4Ocv3qIui7nQjdF/znSLhhvr8m5l+ukXNueesj2NzG6c8xo/B97mWS8n7XdOVrBB4s94s+Tm8OvtZ/NyCvr1uFrxc2GaU0Y+imvjvY0EIAAAAAAAAAAAAAAAAAAAAAAAAEfddb30X9V3FCn6Ke9yoXW2/HsE0PrWuyvi+tWO+KvnPnDOl2kd3ND9IzJbOUaZzZBeNREFHAAAADE+eXSPm5u5mwte33ZSdHH5+8lVAAAAiVHuQke+nsJuQjm5B5t3mx0n54VccVG7lJQXWljEpLV55EpLURKS1ESp04Xumlhe+Y3TnmNl6yLHcn20vRIcjVAWe8WfJzeHX2gDYmI4LTvPRn75504ax2dytYMAAAAAAAAAAAAAAAAAAAAAAAAFtipL3Q/XX9Z/Fen9A2NB6JB6+pWzo+U6sK/gAAAAAAADnn0MjbsM4sDoZ5t7e5uzO0EO1BrYxgGTPv2Aki7me8BRwiVHuQke+nsJuQjm5B5t2Gky9WaqKDI6axKuR3NCYWkh3a/P3UxjA8mY+vnvuO/nKV+fuuwcxunPMbcSsnxjJ9tL0SHI1QFnvFnyc3h19pmVln5Rw9+md+fOih5kNka36izmXQDmbKPXRyWGihAAAAAAAAAAAAAAAAAAAAAAAAWe8M/YlUJA1foO28+fHB6pr9Bqx77tyx4bqboBnHMe4a+PpS53WyNPnRsY1rK/S4hTWn96ZtObj5yAI/AAHl9QgBgvRuFnQz63Gwzy/JNWIvMxw4z9fv5ubFt7etsufL1olR7kJHvop03IRzcg826OfghppHphEHeTaNG1kyXLNXIvM3wn8Z+jbuLZUkrdceYrOY3TnmNspGT4xk+2l6JDkaoCz3iz5Obw6+1n8+oCz60MIayPCYBdM4r7WSN3s8beTdEMphFN3mK4VcQAAAAAAAAAAAAAAAAAAAAAAAAGv8+5wXs6drOinD0AAABWmhCmtWx6ZrBf+Yrh4AAfH2NLaVmmuZc9vH0VWcoDbDlsj81zsYo4Bg0FqWa67nCiS+wGPgVMQNaaHmGtZc/LZ0WW8ufmfTFYNVbVKEYYEKJrrGUKL3LxY9DX4ALdcRChNdsc4pysKmIQ+PF7RDLyzXbDOFEpsxQ+BVxAAAAAAAAAAAAAAAAAAAAAAAAAag2+z951Y30v0NupYks5wbZSBkAAMr3xX8jjKfdN008Ia7AAAAAAAAAAAAAAAAAAAAAAAAAAAAAAAAAAAAAAAAAAAAAAAAAAAAAAAAABjeSPWmcYkasZRj9ckWbSWf5ch8CHwAAAAAAAAAAAAAAAAAAAAAAAAAAAAAAAAAAAAAAAAAAAAAAAAAAAAAAAAAAAAAAAAAAAAAAAAAAAAAAAAAAAAAAAAAAAAAAAAAAAAAAAAAAAAAAAAAAAAAAAAAAAAAAAAAAAAAAAAAAAAAAAAAAAAAAAAAAAAAAAAAAAAAAAAAAAAAAAAAAAAAAAAAAAAAAAAAAAAAAAAAAAAAAAAAAAAAAAAAAAAAAAAAAAAAAAAAAAAAAAAAAAAAAAAAAAAAAAAAAAAAAAAAAAAAAAAAAAAAAAAAAAAAAAAAAAAAAAAAAAAAAAAAAAAAAAAAAAAAAAAAAAAAAAAAAAAAAAAAAAAAAAAAAAAAAAAAAAAAAAAAAAAAAAAAAAAAAAAAAAAAAAAAAAAAAAAAAAAAAAAAAAAAAAAAAAAAAAAAAAAAAAAAAAAAAAAAAAAAAAAAAAAAAAAAAAAAAAAAAAAAAAAAAAAAAAAAAAAAAAAAAAAAAAAAAAAAAAAAAAAAAAAAAAAAAAAAAAAAAAAAAAAAAAAAAAAAAAAAAAAAAAAAAAAAAAAAAAAAAAAAAAAAAAAAAAAAAAAAAAAAAAAAAAAAAAAAAAAAAAAAAAAAAAAAAAAAAAAAAD/8QALhAAAQMDAgQFBQADAQAAAAAABQMEBgECBwAQESA1NhMVFzBQEhQWQGAhMbAk/9oACAEBAAEFAv8AjQuSbVppWXME9XTVLX5rq2Zp10lLGV+kCrNz/brLJt0yE2QS08Pvn1eOqV1x5WpR0z0yllK6buUnVn9kblTcXp+Vck1OO9Ofjpu5VaqC5JY4/sP9akcwrdXjvSvJx348lltVLmKd6LP+ulso+7rTamuO1OSld+OydtVLgYOg+39TLr5y0LeckNeckNYyXUcxP9cvdW0T5yQ15yQ1BijxaWfNzWRfZp7U246ptTSLVdfVA7/SjJyjyJ23KXggVB1n6uZesbYr7P8A1zPR9oD3h80aKWBxy7hR2vyopXrqDIOqrRmBYMabuhTR7ohDdXjnSa4ADQbZ+tmXrG2K+z/1zPR9oD3h81PC/wB4S2puJFLmHQcE2DJfv5l6xtivs/8AXM9H2gPeHzJV9QaOUUuVU48g9kqSdiRSIdp+xddSyn3KNefMvWNsV9n816lqerV076+6oQao3JqWrWGej7QHvD5nIj3wx/LBw1GTDd28QYIFcvjmt1czPfqG5kaq3ijDM22956+bjm53MCSVSM6OE6qrKL3aaknbKovJ5wdUBlEWXrSvGm2ZesbYr7P3cuUmaB/LySNxKamylb77lLtMzpEfUPlsozrHpcNkqfJ+RltfkZbUbPk1pFddSy2T5YRZ3FJQVM3ahXaZno+0B7w5MiTzyZP8tN6/LTegpOSHyApjcNYfIT5x4xvemgzHzMnbbSy3Y2ZbgBsklL2TvNxJh2DeRGVISob7knlDWLsJBJX0ld88Qn7yNqDCbYwy1mXrG2K+z9jZtrHx8olz2UOuZBwq1WgWQaHuaM3Utkk/nihxxvCu0zPR9oD3hvPZtZGmiqt66umLFcm7h8SQio/5GSqeMe5MdNvFKb5VPXETvLCT9Y9IPbJkkBDCQnnEjKbNmqz1Yfio69t9GX3Ahik4ztds12C+kkr11cdxJzGWOsy9Y2xX2fpS+1KyaylSUFtmbFwRcMMSmnVt+Gn9LTUCMgk9klb0FYRJ6ScN7MK7TM9H2gPeG0zlyMVHvnq5J3pFK9wrBIUnGGnyRWv1E+TGtnBvuSc3PSPNHXNXgD2svnq3r7RiNOZQSARphG2u5kCxPtpHjwgIKQqBoRhLbMvWNsV9n6yudqOB7RqPLyUoBjrKOM98jwJLwNsbnKhpLy221urGMTKO02UJBMLbo+Luoggm1RM9H2gPeGpPJW0XGlyzg2Q1SnGuO4L5Gl8mVt+knyY2v/8APuTbVZEuaPNasgPtSIlUuc2gsetjwD2cy9Y2xX2frKRGr6WbYwBUFRzkrTjSYBvIZFq26tlwp75iM5MUxK2+3kM9H2gPeBs01AD5HIXUlI7Y2gfg/KyNLwjm1dseOfCKb5WAXDzfLCQF0hkHtG3H2gXaMMqEZD7WZesbYr7P1I1/upBtZICiVn5GW1+RltfkZbX5GW1+RltOni71TbHi3jw3eyyqt4thYLHchno+0PeojZJL5Y4lRDZo4+0dBiyJwZ8pOG3hGeQQ+8sJ23Uvt2NB254dJoq8i7zcQGdnXkRiyEVG+1LO19sf1pSY+1mXrG2K+z9E+PmXt4zt+mF7xuyish5TPR+fF0p8qJfKTxn4rHhrhvXUGL/fDt3bRF83K4hGO7q4YdfUNw4zSuFiGYVv7Zdt94K2BP8Ays1SvGns5l6xtivs/UqbfZyXYVikaUGejQ/Xo0P16ND9ejQ/Xo0P16ND9ejQ/Xo0P0FFJhBe8X7m5TPR+SHQ1eWOyoxYOR1SvCsAk/5IF+TIs6EGKidU7664bWJXK3xSP1CNf1JYLqHke2NpLabCcvHhyZl6xtivs/WWhlWck2xJJbVWvK4doNOeL9zcpno+8WjDmUERQtsFY5Ui3mLDaJSFSNGkF03SHyc0F/avtrErlb4xGLRNn6uXo/4qOwoq5CvotkIfIbN5DNxcdskM1IyAhBciJnKbZl6xtivs/WRo/U9HtmzlVk4iWS2ZdP8A3vIpoMjacnlLyUvYJknwdUrxpyRfublM9H2DjFDJOPgG0bG6utpdbPIxWNGtsTSn67Pkyw6wqxcN72y1idyt8ajVomzaXy9tFWTuQknpCP5cctaC5sFL0pXjTYlKhIjR7MH+FzxFw9gc8skaXsumyb1tL4stFim46XmRVnqdIuD6YmiVNqV4VxlK35xDWZesbYr7P2yRDKhXm46SlBNKZNkdKPpscI21rxrtiQoVcp8kX7m5TPR9oD3hvL45ZJgqyN7dXTN2qwdRo8lIw/ycgjFpe8DGUg+8vl7aKsiZNyYe7tiDplr8qNUo4LPnlN0Vr2ysDnlkjS9k0Ean2Ergz6MK88Uxq9N3DRrYQz1mXrG2K+z9nDdJ2hMsaOBF3PEMePJDcPHtxbTki/c3KZ6PtAe8OTLEW8JXbHEp8gMfLS+XtoqyJk3Jh77aK17ZWBzyyRpezdbS+05isUTqQxQbaVXh5tvW2Ml7qtYCfd1GYdfLVBQEOB5Miw0lJSHpSf16Un9QYM5AR7kkGPhMgqSxCUbVcwk61r+Nl+LeEnXOhuIizmoHG4gJXk9KT+vSk/oHjM2wNcpFG5yP9KT+vSk/qK46MCJDyPWaRBo6xMZsc+lJ/XpSf1E0STUN8pd/ihcg6KEfdRWvbKgHK70J/YS7HTORVNR5/H1/bGi3ZdzE8WoDa/2Tpqi9QO4iaOql4SZC15xUVLG9A8PW2VHjGglv/bEY2LLad4nBONK4Ya116K6SwuhSrXEYRDQ+Ihhdf+Ox/8QALhEAAgEDAgUEAQIHAAAAAAAAAQIAEBESAzEEICFAQQUiMFFQkKETFBUyM1LR/9oACAEDAQE/Af0UGYKLsY3qHCpu8/qvB/7/ALH/AJNPjOG1eiag/Nu6oLtNfjnPTT6TVLObsbxljLGWaHH8Vwn+N+n14nA+u6XEH+Hre1v2/MO2AvNUtqG5jLGWMsZYyxlnBenanHamK7eTEUIoUePiCXhW3y4Qi3fanWMsZYNBtQ+0QemX/uaN6Sh2aa/pOsnVPdOH9P1OJ1MLWHmaGgnDoNPTHT412j7fM+/egXjLGWLo5nrAAosOwXaPt8z796q+2ERlgFqBPuYiMtucLeBQKWhT6ou0fagW8CgUsDGW1Eoq/dPNH3oq+aMb9zbpCIwonwgXNC1pmYH+4WEPWLtH2gF6FrTMwP8AdGFjEoTaZzzR94q3ozeO6AuIRNQdKJ8Kc67R9om9Cl5hMKPEoTfkIuaOe70TlpiEQiEWNqB/uZCM1+ZIeZdo+0SmQmYmYmYjMDE57wi827rhH64QiarBBCbm/wASHrRlqVIou0faKbGjL5rhROZmtAbdaOPPdA2NxP5pML+YzFzcxVvLAzCYQIIReEW5Va9LCl7Qxdo+1FbwaWFL2h6xOZ96IfFGFu7UX5yL8wYiZzM1yIhYmoYiZzMzegNpmeTMwm9czC1+7vaB/vlJAhe/5zIzIy5/Rt//xAA4EQABAwEFBAgEBgIDAAAAAAABAAIDBBAREiExBRMzQSAiMkBCUXGBFBUwUgZQYZGh8COQQ7HR/9oACAECAQE/Af8ASg1jnm5ovTdnVbtIyjsurHg/kJ9LPH2mH87ggkqX4IheVS7BjZ1qg3ny5JkTIhhYLkQiEQp6KCfttVVsuSHrR5j+fzihopK6Xds9z5Klo4qOPdxBEIhEIhEIhVlUykZedU44iT9KOiMjA69T0phbiv8AqDNfLz9ynh3Drr++xxuleGM1KoKFlBAI268/VEIhVVXBSC+Z1yl/ELf+KP8AdDb8nOMKDbVPLk/qqrroqaPFfeToppnzvL3nP6dLwWqv4Xv9Ruosr+IPTvv4Zo95K6pd4ch6/wB/7RCIW1tpigZhb2z/AG9SSvmcXyG89wpeC1V/C9/qN1sr+IPTvuxIdxQs/XP97JHCNhe7QKrqHVczpn80ASbgoqFoF8iNJCeSqKUw9YadOnpnTZ8kynij0Fjo2P7QU1DziRF2RVLwWqv4XvZBTOm9FHTxx6Cx8TJO0FUUZj6zNLNngHFensbhOSp6MXYpEAG5BO4p9bK/iD0spKbH/kfosDByVTMJDczTvNMMELG+QCBW3JMGz5CP7nZQMveXeVrmh4wlEXG7owR714agA0XBT1LYcuaNbMVHXuHbCkqo2MxDNPeZHYnKl4LVX8L3UbDI8NCa0MGEKoqRDlzRrZlBW4zhksqot1JlotneL2sklZEL3I7QbyCvxPvsr+IPRUtNvTidotFV1OPqM071TOxQsd+gQK22zebPkA9f5soH3PLfO1zgwYiibzf0dnt7TkTcL05xe4uPRpeC1V/C91QNveTZJRPkcXFy+Xu+5fL3fcmghoBW0G9UOWzvF7WTSGV5dY3UWT05mmHkgA0XBVsj2Nubz73sebe0TP0y/ZAp7RI0sdoVVU7qSZ0LuSBIN4UVc0i6RGrhHNVFUZshp0tn9lwUgxMI6VLwWqv4XutnnrOFhrIRlevjYfNfGw+a+Nh81V1DJWYWrZ3i9k/sm1uotD2l2DmpIxI0tKe0scWnvX4fqsEhp3eLT1QKr9ox0EeJ2vIKonfUymWTU/SopMElx52VVMWHG3SxrS83NUlI+NmKyl4LVX8L3VLJu5QTZV0xv3jLGtLzc1PontZi52bO8Xsn9k2t1FlVUbkXDVRyuY/GmOD24gq2HEN4OXemPdG4PbqF8+gFPvPH5fr/AOKoqJKqQyynNU1Nves7RPhjeLiE7Z48Ll8vd9yjoY25uzU1O2Vtyex0bsLujTVQkGF2thijOrUGhugT5Gxi9ylc17yWi5UvBaq/he9lLVBwwP1sMTHatQa1vZCe9sYxOUzxI8uAuWzvF7J/ZNrdRZX8QellFNhO7NlTDuX3cu90sAmdnoEBdkOlPA2ZtxRFxu6LKuVnO9fMHeSdXSnTJOe55vcbGVckbcIUtS+ZuF1sdVLHkCvmD/JOr5Donvc83uNkM7ob8KNbKRdbovjpVLM6Y3us0Xx0qlqXzC53e2PdGcTVFXNOUmSa4OzaehJPHH2ipqx0mTch+dgkaIVMw8S+Lm+5Omkdq7/Tb//EAFEQAAEDAAILCA0KBQMFAQAAAAECAwQAEQUQEhMgISIxQVFzIzBSYXGRsdEUMjM0QlBygZOhssHCJDVAQ1NgYpSi4RVjdJLwg7DxJYKEo6Ti/9oACAEBAAY/Av8AZod2kNoOqvHTJLjvkp66ZMZZ5VVU7z/9v7UxxlDkVTKDjfKmm5yEE6iaj99ytxaW0DwlGqhTERflcNWJNMt8pTwEYhvG5PKSODnFLmS3V+NHVS7aWFp4vvmWm93k8HQnlpdyHCrUnQN8u2llCtYoG5NTbnD8E/fFUaAqpOZT408m/hKRdKOIAUZQ526UAH73qhRF7iO6ODw+Lk38JSLpRxACl9dypB/T9FghiQ6yCzjDayNNO/pPpVU7+k+lVRhbrinV3xeUs1nP9ImkGohleMclO/pPpVU7+k+lVSxqHJb60FzGlThIOI+POwI6t2WN0UPBGredzZcc8lNdO83/AEZpukd1HlIIwAlIulHEAKX13KkH9P0aBsPitsbRfT9InbBfs27GbT3Hx27JXnGJKeErQKLedVduLNZOElttJWtWZKaBc1y8j7NHbUF7jIr4Sso4Bv0dCjwqqjz0uobn+m510vKmF3zg1UvruVJP6Po8DYfFbY2i+n6RO2C/Zt2M2nuPjsREHco+fjVpwgyyPKWcyRSppN04e2dVnPiCBsPitsbRfT9InbBfs27GbT3Hx1Ikn6tNY5dFFLWbpajWTgtx2RWtfqolhkeUrSo/Sa1EAcdO6o/uw4Gw+K2xtF9OHlKCeU0qS4lR4jv1S5LSDqUsCgWhQWg5lJNYNJ2wX7Nuxm09x8dMRgcbq7o8g/5wuy3E7u/m4k4Cn5LqGGU51rNQoUQo7s4jwzuaev1UxWOYudV2aBM6C5HHDaVdjmxUv8KQl9vizjlGjf1PynkMMpzrWahQt2KjX4/bP4k+YUN8sg62ngMbmPVS6cWpxWtRrtVx5TzGzcKaAOPJmt8F9PvGOgbk/wDTnz9qcg/93XgQNh8VtjaL6cBbz7iWmkCtS1moCimrEsX8/bvYk+YUN+sg8EnwGjcD1UulEqOs2q406QzxIcNVEpnNtzmtJquF+rF6qfJHqnR2zDmJYwfnSZ+YV10+dJn5hXXSxaHLIy1oVKaCkqfUQRdDjoVKISkYyTRcexKEynBiMhfaDk10PZU51xJ8AKqTzC1YrYJpO2C/Zt2M2nuOCqx0Bfy5Yy3B9SOunztN9OqnztN9OqjcOJZOapxWm/qqSNZo1HXIdluJGU88qtSj4xvehpsJ9/vwY8bQtWPk00CUipIxAC27MkqqbRmGlR0AUvsldy2O5sJ7VH+a8BMqG6WnRzKGo0vyBe30ZLzXBPVvpffN24rE0yDjWaX6W5WB2jSe0Rybwll0mTY/S0c6PJo3LiOB1lwYiLUDYfFbY2i+m2uXLXctpzJGdR1ChU8q9xgdzjpOSnrPHhodZcU06g1pWg1EUECfcongZC8wd/fCsSSagJbWM+WKLgwnCixyDUVJ+u/bAsVsE0nbBfs27GbT3HAMeOoKsk6MkfZjhGinHFFbijWpSjjJtNxozZdecNSUilwmpyW4K3ntZ1Di8ZTlfzCnmxYL7x+qbq85/wAOB2AhXyeJiqGlenqwo7xVUw4b095J6s++PS5CrlppNZo7MkHGrElGhCdAthqO0t905kNpuiaBTiGYY/nLx+qunzhHr8k0KmgzMGpleP11ULMllbDozocTUbSW20lbijUlKRjJo6qW8b7IqJjpOS3+9qBsPitsbRfTaUtZCUpFZJ0UU4CRDayWEcWvlNtLEVlb7pzIbFZoFPKYhg+C4utXqpkT46laiFChdejX1gZ3WDdAe+2lxtRQ4k1pUnODRLqqhLayHkjXr8+9WK2CaTtgv2bdjNp7jbusTkxzEy17zxUdkyXC6+4bpSjaQ22krcWakpTnJpfnql2RdGWrgDgjxnLOt5XTgzl61JHT14EqQrtnXVLPnOHY59WNTkdCjy3O9x7EtKyEC+vVa/BHv89sRmMhAynHTmQml5htVHwnVduvlOBeJrAdToV4SeQ0ajxULmsSFVMuJHqVqoH3rl+yKhjc0I4k9duBsPitsbRfTaTCbNTsw1GrgDP7rbcRjJGdxyrEhOugYhtXPCcPbLPGcByy1jmw2pGU+ygYiOELbKFKqjytxXy+CefpwgAKydAoiRZdao6DjEZHb+c6KAN2Mjq43U3w/qpUbGxCONhPVRLTLaWmkCpKECoCk7YL9m3Yzae42lSX8pZxNNDOtVHZkpd064fMBqFsWQnIHZ7gyEH6kdfjSWNTqunBnI1KSenAlR1ds06pB8xw7HMKxKbjoSeW53udMrrDrpKfJ0eqq2yhSapLwvjx49Xm3qBsPitsbRfTadaryIyEtDpPTbRIUnd5m6k/h8Ee/wA+DUcYpMiJFTQVdt+ScY6rQUk1KGMGkSV9s0lznGD/ABqUivHVGSfWrBnbBfs27GbT3GjkuWu5bTmGlR1Ci5UlWLM23oQnVbRZayLW6dtHZV4P4j7vGs0fzCrnx4L7B+tbr84/5OB2ehPyeXnOpYz9fPhR2bmuO2b48fwjrzb3Pf8As2Fr5k27HR1Y0LfTdDirx73A2HxW2NovptWSd4Uhw/qtpQiyUtKUioJD6qh66fOkz8wrrp86TPzCuunzpM/MK66fOkz8wrrp86TPzCuul8kPOPuVVXTqio27GqOhKk8yiMBKE41KNQpGiN9oy2EYM7YL9m3BkyF3tlpRUpXmNL4vc4zeJlngjWeO2y9cpcvawu5WKwatdGJsc7m6murUdI8a3zQ62D7sGPJ0IVj5NNAQawdNt2FKTW2vSM6TrFC1ITdMnub4GSv9+LATGhtF1w8yRrNLwg3x9eU87V2x6t7st/SueybdjK+GfZO9wNh8VtjaL6bUuvPfVdO+WP474f1qwLFoOZUpofqGFO2C/Z3j+HSFVRZRySfAc/fNzeNWZAGNpVR5DhGMvukbFXrTowFsSGkPMr7ZCxWDQqhvuwTwe6J6/XTFZJm52ZoFTprkn8DSbge+l4hR0R29SdPKdO+TY+e+srRzi3BlntWXkqVyV46VjGN6gbD4rbG0X02rJtZqpCyOQmsW4stE+RcvNheZOKunf8nmTTv+TzJp3/J5k07/AJPMmnf8nmTTv+TzJp3/ACeZNO/5PMmkeC0orQyKgpWc4FiP6tr2xhTtgv2cFQCrxEb7o9V6hx0fhyE3LrSqjx8dsX1Vc2PkPcepXn8aPR1eGmrz0UhQqUk1EYCUISVLViAGmilOmuS7VdVeDxfRZ8WqpKXCpHknGPUbaIzi/lkQXCgfCToOFy4EDYfFbY2i+m0mUBkS2wa/xJxH3W12HeXujda2K9KdIwkX51DV2q4Tdmqs6sOxH9W17Ywp2wX7OAGGRcspxuvaEDro3EiN3tlHr4zT+KR0/KIw3QDwm/2tsyhWWu0eRwkUbeaUFtLF0lQ0jxoJSBub+fyraUISVLUagBpoH3wFS1D+zi+jMWXaTjb3J7k0H/NdtuXEcvbyOY8RoltxaYc3S04cSvJOAoOvh6RojtGtXn1URJU4YyWTWy20ar3+/HRuDPIashVUlfgvfvbgbD4rbG0X02llpN1JjG+o1nWP81W232HC082bpK05xREeyC0w5ua6ViQ5yasBV/eDsjRHaxr8+ql+kG5bT3NlPaoFG7HWWXW32rcpRzcSuvCsR/Vte2MKdsF+zbjwmiEreVcgqzCiIkYYhjWs51q1m0QRWDoNFJbT8jfy2Tq1p83VbNhZC8pNa45OrSn38/jRyOrFX2p1Gi2nBcrQaiKJQhJUtWIAaaB98BUtX6Ld0qp2W4NyY18Z4qGa5Me7JrrCkrIueTVRLVlWeykfbt4l+cZj6qC8z20rP1bxuFeulYxi2eyp7KFDwAq6VzDHRTdiY3+vI9yadluTXzJrrDl2QRyUESWQ3ZJA8zo1jj4t6cYeQHGnElKknSKKZVWuMvKZd4Q68AIjWReQgZkKN0B5jTv4ehR1UIfsk+UnOlCrgcwt1jEaORZbS3RHTima/wAKuO1A2HxW2NovptmyERHyB5WUB9UrqwAmJPfZQPACsnmp3+D/AKKOqly9ZJ651N5Hs0rOM23Iq0X2xjXaurONB4I14NiP6tr2xhTtgv2bdjNp7jgOxsQfTlsrOhVFtOJKHEG5Uk6DaakMKuHWlBSVDXRma3UCrE4jgK0jxoHmlhp+qo1jEql9WoPSOFViTyW7pVTstwbkxr4zxUcly3C684cZOB8nkvMbNZTSr+LTvzCuulT8yQ8P5jpVgIdaWW3EGtKkmog0ESWQ3ZJA8zo1jj4t6XElou21ZiM6TrFCsjsiFXkyEj2tW8IfmBUKFnyhlr5B76IixGgyyjMkWoGw+K2xtF9NtbLyA60sXKkKzEUXKsalUmDnKM62+sbwh+QFRLH57sjKc8nro3FitBlhsVJSMGxH9W17Ywp2wX7Nuxm09xwRZmOjIXkyANB0Kthh5VUKUbldfgq0K8b3SqnZbg3JjXxnio5LluF15w4yd8Q60stuINaVJNRBoIkshuySB5nRrHHxb0UqAUk4iDRTkW6se8fs8aP7eqhvAZmo0XtdyeY0qVYqWfIaKuilQsVNP/jq6qZNjHU7WpHTQGdLajI4LeWqiVtsdkSBjv0jKI5NAwIr0JLZQ21cm7XVjrp3Nj0tO5selo1DlhIeStRNya85wVOqa7GlH65jFXyjTQmG8zMRoFdwr14vXSpdipJ2abvop81zfy6uqmRYqQNom46aAy3WYSNIru1erF66JcU2Z0geG/jA5E4Pc2PS07mx6WkCS6hm9MyG3FVOaAoHClMo7dxpSRykU7mx6Wnc2PS0hTJCGgy0utVy5XowXYz6btl1NypPFR1LF5cZCjcLLlRIp3Nj0tO5selo1HsolPZDOQFpVdXSdHjU1Cs6qPyJilKkKVlXWji35DrSy24g1pUk1EGkF+SKn3GUqXy1ffFUlgiHPOdYGS55Q99L1Njqb4K/AVyHfAxDYXIdOhIzctESrKXMqSMYZHc0cuv75qZkNIeaVnQsVg0LljHzDX9k5lI6x66G/wAJa2x9azlp9Wbz7wOxILriD9YRco5zRLllZV8/kR8391AxDjojtDQgffcmXAYeUfDKMrnz0N7EiLs3K/arpuVknUeW2FdVPnj/AOb/APdN0so4ofhaA99N1VJk8S3Kh6hQGNY5hChmWpN0oec/7Oz/AP/EACwQAQABAQUHAwUBAQAAAAAAAAERACExQVFhECBxgaGx8DCRwUBQ0eHxYLD/2gAIAQEAAT8h/wCNDJgLH2r6eTUI/hROm3wdk9IxfirF1Yk6NRgku6Af9vehggCplS8S96UqmvjF/OiWwKDQ0NDURCcT0GoTxm+mr3ldxy/2asULIPvPg6VZ8txZwyig0NKhoaGhoaGiho/8HOlp6sBZxMv9goFWAxaietq26NOvtRKhodgNDQ0UGhooNDQ01lMBKtK9PEGP9fepUJvZPE8L1Q0qKDSoaGh2A0NFBpL6YCVaCgD4hyNdfpXCFQFZ5NeBfNeBfNLWgqedfqGTOhIRnXgXzXgXzTdVGZxC/fFSDORa/c9uNDQ0qGiioaVdVj7K8GdqFkHPvBQ0NDSr0wEq0UMHxDka6/TdY7vqz/K5tvU/vdDgjKxPDgNOIXfitDQ0NDQ02PoBK1MIcl5m461YBOH1X4oI2hSN/BW0cLhzO35e9Q+5wBs8IvoYYHiDI11+n6x3fVn+Vzbep/e63zsYYvwu96GhpUNDVnDLecT+KsLFYP5mn2DrHd9Wf5XNt6n96rTMcM7g5sFMNSfere0UGhoanyKJbhiuhWpAXmH6nVhSihkDro3+sd3pHjTy6rSggr6zA3vSHWhtzMANGvK5tvU/vVZeK4L+R7UlXUNDQ1ciEzvwznf7bhuRksubVl7CSXhI9CrRDmK+/wCqTSmIpaqEcpoZju2VyS1cfXuGiGH70qC9SW/IbXmnCp8ziWGV1ec0hWL3rrsHLy57U0MGZp6Xump77MEraYOQoAREbRNvWO7fPhg8ADVaj20ltJnevOOFfhbR8RnnSBZvWV2H4Lga4kw1dlFcnjac+apVAp6D4mpJvypSTXqSJEvFH5GSgDNrN5EFpv47DjSxlRP2jbDyubb1PdixsvvMtZ7X5V4B814B81aUHVm9psCrcyKMbbVgyMPuK2+5Wr+ikpKupU50wyOBtXsNH4LgAbYZxsfy002nO0sWhi5/CzcsjescgYmlQLLJM6pmsH8erbdlBvjBi4exTCem5DkPm/0GUdh8lm8OFzpfUhkmCzEwTLZ1ju3j7vcLRhyxaXPgSGb3HTfmbYC/MSnWWMbGX2YY4xwy3ibOVIAonFAiF5vaY3uEbkPK5tvU9yz6wYbwD4p9+poq9XZnz+X+DWghAPFAw9/uVrEx5DhSUlJV1GGkhaL+DcPLDiSxSVyk5HPeiyIDdNfzRyepM/58XINVsqAIkK4XPl87b2bJckUhA2x2x6oovGks6Fjcj7T0VeyPAuTsNfqaIuAq8ypiLXHPFnG/Z1ju3T1IsegBetOyRfhjfAnSww23wHx4nCsd9ALkU608cGDPeGr4VYDZpcNU2mt21ArRGn/gPbJ0FvuYbpY70PK5tvU9tGUWpb3tOt1YoQbr+MI2DXwVKLgKjaLxi+/M4/c8S5PXSUlJSUOLezm4OTMiZo766St1CevpxUQEr3ecCeRltjWDCXi/VyP3QALl0U8LLtxnwelzvCr3yCs+0i+boJzjChRyOp1vO3rHdunyO3dWkT75HCdtp022Qr12DNo8ljH574LjDchbKxmKLBMTEtvv2WY6nhLsQJyW8jZ0ASrWdF0R5Iv4VCVf3yVLl7BZSGYAA8gLq8rm29T2WIXKjJaGbh7FW/iI5LIDYgAStgFShLCr3545XZ/dNG310lJSUlA4j38/DcGSOIynxvlVCXQJ6+mjJBNDB9m0bwSNbO7lWcZz9LrHduniKWWMx3o8tobCOFb+tugMAliONBcQLwzlPs2P8aAvGiNsI7KBjru3GNE2WSe7YcHTd8rm29TquUsHhyxWlaFwumHy47YtvIF9lnkwvyj7pZzE+Q40lJQpKnBBC1X8bhM5CIFhoHMD9G8xGRhhruaOb02CYTuY7RSguYZdA+n1ju3T1RZjOEo6bSAcNQLgN5KlSpUrI7xRlLtZZL7L3bcOiALNaCsBcYwWvO/d8rm2iUVbAKrVSmR+QVk7UBdfUaYGI1NMtBfdJqMn3WKGI9T9CkpKSkprfhsb12dC0AYUgxNq+D2XAubMpqL7ei+M3wt3L6/aWZwwKFiWWE5JowOOfrVHa5F6Z1ju3TwAzP3+os7FuFekB5715XN6E1FebZcHLqcX3W0Y8M6h700aJSUKRWsRWL8Ij23BxJA/IUpc47HgKUFgrMg+01ChsBzlU8oobeCja87xavqIYSFOKfO0kMcBo7JoCQS0TH0usd26e6RABqegm2yyXloEpdg2V5F8V5F8V5F8V5F8V5F8V5F8V5F8V5F8VrMawLL7+ls8rm3WkZvQ4Fj2HKZshZQwGiQ89iAjCWiVh0E1/wCIPcful1YwXDA+8VNyxmCUKaJTdkh5VlQjJI3AXdVr9LZAaPPsNs7ILltzr2WOprvIQKDYNdzrHdun4YSqy4vYfPbCmbNK09Rl4LlvXJ3hZdwm99XZ5XNuO8YKP21gfuhEFgMVimK51CTYpLb6eN/guRtlTNgxL+ZealEDXd6EifdGhG+GBv8Ae/3pKSi4IDlWVcTowOTXN8fpXcmOLO9NU5Nr9G2N4YhiNQ3mEKmpfwv3BpO4nejn61JJj8LOcfCKDALhOBlpxwy29Y7t0+xhthYhZ8S2MUbTgRUhKN1QTys1i0eVCARk2jAktwz2NXrV4dx37S4v6KfisdlXLoxzABERtE9PZ5XNtF7/AJ0Lymu/HrnlYbATGhCRKVQTYYdxdHa5nQS9yrR+H3S0NGcnuaRuo7MpeCQcqo6DcQ5Gub47LdBLa3sj1uKEq9mijc0KjGcFiZQONt0sohPKaAkEtEx2lY3O8boqVMN0F2oPd5UPKoDlFcaFcCzEX9HMWXejczjOQhKtohhcl0Y++O4AKogdpKFXLm18asgPGEabXYhIhaJhQN0WtmTM1mBbm11ju3j7/SsW4Rg8PbKdtxQBKOezpRA4hrvpde4XjAmkZFLVcdsIqwoYPLYxh0fS2eVzbep7k+eHF/Dc8dKQmkGEGEdiHcMYKiVaI3P9DRPugvHIsDCddacVMgsgy/LbboJbW9ketxUhkmCyAwDLc8ZMyaIHFWcLV53p3DoVihXI1wLMRf0cxZd6N9/Fiwz4JSa1wUZAxdPQx8fQHrXGrlNCJr5KuLrs6x3bx7v7iyrBq42Y9H1L88/QyWwYMg/pxr5HED1dfT2eVzbep7tf/ITo8651jPakRphPKHR0+726CW1vZHrcVIZJgsgMAy9Q6FYoVyNcCzEX9HMWXeifkYKRMmnVXmxO8V3MU/mLww6w9FpasMQfeVSZGlIcEuKh95WJdgvCwD3adlbCJWiOYE67jOURjtGv5Gv5GjAI0eJC3dY1bWJLO67taxrPJfKgvQmn76mhbXRSXCT8VmtFDD8qEbYmMR7Bzl1q7c/ka/kaA7URWcQcDej4ZHYJAV/I1/I00iTAokXc90f7DsVR4DAUnYpgxX8jX8jWQaQVedYs5Tj91SqCLJRNKnFDJwmAXR6x0KxQrkajP/4i0JYwm+P9jauwkG7mjnNP5SwJPRXv6n5V4Yrg1ae2Et5O70431d/shWPB/LNPuMtsvB8GFIuBRY5z8Crt9hfyBEUVaFrILirfYONZYCPOq3rq/wC3QvAgHt/Kn043EY9lGWG8SGiJss1cDG76qYFbEHSnrVo1LkElSrv+Ox//2gAMAwEAAgADAAAAEPPPPPPPPPPPPPPPPPPPPPPPPPPPPPPPPPPPPPPPPPPPPPPPPPPPPPPPPPPPPPPPPPPPPPPPPPPPPPPPPPPPPPPPPPPPPPPPPPPPPPPPPPPPPPPPPPPPPPPPPPPPPPPPPPPPPPPPPPPPPPPPPPPPPPPPPPPPPPPPPPPPPPPPPPPPPPPPPPPPPPPPPPPPPPPPPPPPPPPPPPPPPPPPPPPPPPPPPPPPPPPPPPPPPPPPPPPPPPPPPPPPPPPPPPPPPPPPPPPPPPPPPPPPPPPPPPPPPPPPPPPPPPPPPPPPPPPPPPPPPPPPPPPPPPPPPPPPPPPPPPPPPPPPPPPPPPPPPPPPPPPPPPPPPPPPPPPPPPPPPPPPPPPPPPPPPPPPPPPPPPPPPPPPPPPPPPPPPPPPPPPPPPPPPPPPPPPPPPPPPPPPPPPPPPPPPPPPPPPPPPPPPPPPPPPPPPPPPPPPPPPPPPPPPPPPPPPPPPPPPPPPPPPPPPPPPPPPPPPPPPPPPPPPPPPPPPPPPPPPPPPPPPPPPPPPPPPPPPPPPPPPPPPPPPPPPPPPPPPPPPPPPPPPPPPPPPPPPPPPPPPPPPPPPPPPPPtvd9PPPPPPPPPPPPPPPPPPPPPPPPPPPPPPPPPPPPPPPPPPPPPPPPPPPPPPPPPPUSMmbJ/tPPPPPPPPPPPPPPPPPPPPPPPPPPPPPPPPPPPPPPPPPPPPPPPPPPPPPPOap0C9mbEPPPPPPPPPPNPPPPPPPPPPPPPPNPPPPPPPPPPPPPPPPPPPPPPPPPPPPOFkWqWrcnP/ADzzzzzzzzwFTzzzzzzzzzzykP8A8888888888888888888888888888xb+Qd88888888888y888BU888y8888886hD/APPPPPPPPPPPPPPPPPPPPPPPPPPPPB0HdOSEHvPPPPPIIwUN9AVPK4wc0vKhUQ6Q/wDz8LTzzzzzzzzzzzzzzzzzzzzzzzzDVLyoMMDfzzzyuEY89h4FT4IK0wF+tMECIP8AhBl88888888888888888888888884a28+DDAf88886Ff8888BUvDxwgI0rF98pDujN88888888888888888888888888uSJVtEMO88888qW08888BU6DABBBRrS88pDDAB988888888888888888888888889mQd888888888/Dy87S8BUvDx8/b8rC88pDbdKk8888888888888888888888888/Bfjij8yj0888+IDhzC2BU8uDzgCfrC88pD/APDQdvPPPPPPPPPPPPPPPPPPPPPPPPPKAwwwwww/PPPPP3zffLnfPP7bD/LjfPPjf/Ljz/PPPPPPPPPPPPPPPPPPPPPPPPPPgDAwwwDXPPPPPPPPPPPPPPPPPPPPPPPPPPPPPPPPPPPPPPPPPPPPPPPPPPPPPPPPPP7vbXPPPPPPPPPPPPPPPPPPPPPPPPPPPPPPPPPPPPPPPPPPPPPPPPPPPPPPPPPPPPPPPPPPPPPPPPPPPPPPPPPPPPPPPPPPPPPPPPPPPPPPPPPPPPPPPPPPPPPPPPPPPPPPPPPPPPPPPPPPPPPPPPPPPPPPPPPPPPPPPPPPPPPPPPPPPPPPPPPPPPPPPPPPPPPPPPPPPPPPPPPPPPPPPPPPPPPPPPPPPPPPPPPPPPPPPPPPPPPPPPPPPPPPPPPPPPPPPPPPPPPPPPPPPPPPPPPPPPPPPPPPPPPPPPPPPPPPPPPPPPPPPPPPPPPPPPPPPPPPPPPPPPPPPPPPPPPPPPPPPPPPPPPPPPPPPPPPPPPPPPPPPPPPPPPPPPPPPPPPPPPPPPPPPPPPPPPPPPPPPPPPPPPPPPPPPPPPPPPPPPPPPPPPPPPPPPPPPPPPPPPPPPPPPPPPPPPPPPPPPPPPPPPPPPPPPPPPPPPPPPPPPPPPPPPPPPPPPPPPPPPPPPPPPPPPPPPPPPPPPPPPPPPPPPPPPPPPPPPPPPPPPPPPPPPPPPPPPPPPPPPPPPPPPPPPPPPPPPPPPPPPPPPPPPPPPPPPPPPPPPPPPPPPPPPPPPPPPPPPPP/EACgRAQACAgEDBAEEAwAAAAAAAAEAERAxISBBUTBAYXGRUKGx0YGQwf/aAAgBAwEBPxD/AEoUYB88TiD/AMW/wM56kKWD4sv8PP63Y6iWg089/wCiWbL5b6GVC6ndz+Dr/FMLDd37vp7fT+f1gbHoYb/tDj9Af9Xsf8mloB+OPSQXcr3fq38y/Xvgu3L1a7+I3Or6L/fj+IJyj9EMWB8cP4/pnNgNk18ffxKOQ/d8vlfT0+qG8ave1lzHMaQwNHsNPqhvGr3tAl+EBRAviBC/aJzNdbc+00BhDsnejU05G+s0Bh3CbRg3cQqd2ADUcNWLuUogqjXuSoMdReDbeUspjx08RArghce8YrAiyJVs04LFQAKIXHvhuayDvwAtlfEu7Y1SxbrF3D3VC/GHl4dNZWi2PPSdsWi4ttvTpwHk4RXcv5l/MODmHgZ34uXg3iu8QK4IgUe7sHjj8Y7ymOyg1zAh88Tia6tWch6tODd6tUiid8dOTeaXUAUxFU+6Aa76+8dqdxmXpUU84QbNYBeCCXjT0ANdMAvBFBeO+OnJvFGjcRQIlktKe6YthFP2Xz/UcPzNh1ElJE9mX8wG+YYqIqekODvCmyAGogWxC2TTkswKbIAaiBbGKyd8dOTeNWKW2Lfu7/M11GY8dSX8RTUVd4CUQGnOgl/EU1FeTh9ZZ0iu3oENPuxKyAwI66NoxuB+timoD3nzxbb/AKbf/8QAKxEBAAADBgUFAQEBAQAAAAAAAQARMRAhUWFxoUGBkbHRIEDB4fAwUJDx/9oACAECAQE/EP8AihOWWATdoNnzEjukBTf01g2ZDGTLrT/bGNTbNaBmwSZKXD5dtIk9jAJegABQniXPU+ZwCv23Ljy6f7A65C/gDzgcdJsDpDF4riv4OHrAAqjVDH6xYVWqz6/yJMs8omvPfKn9BMEZbp9w4OaZP3oTTQAxWL8KpY+BQyznaEgyahVdCvOkFURMVLYHvE1fDVPMIhqcbzqfIEXSqANc9M4mJltkZfz2HzFDR2f6bqz9Wb70Ad3UKvItAUvzuMDF8HF0hiqVX+kl9Gw+YoaOz6JPrBaRcOtn6s33pB4mfcbSisPvIFdAmxVoXQ4HIugEE1gws3ApB0ruixfLPea+fXeu7HjpBldxb39pASpBkheUHJbk/D5hEhJI2HzFDR2bGZ0HHxA/Hxb39pYNIXv1rALfcWJ5LLlp0+YuAKPCJId+HnxB0mRlG8d7P1Ztk0BkMfrvCCaJaESPAcq5+PcgBwHQLBK0QOoHadgM8He1jRYZlw9K8N46QYKQRdsng8w5MQ5eYQlOMSvjtBhpmh5wh5WY2HzFDR2Y46UHRkEXOJrh5hTMQ5RKSktE+YrAsVLzxH5c7Jy5d2At7LlDdfFnvZ+rNhJVd3y8wAJFImlszj9d/dCRxTqFglaAdAXadgO8G5+bWNEhmXH0lPQP20GzoXxXBfTsPmKGjswSvA72AUvcIyHSMh0hgZoXsA4Zl1PqPy52OynDSzdWTFuJe824gwcggjdFxfjn7s2zvM2w2lYD/MEdEkxXvctSo8yTAJJJBgZOJSDp39Bi6+Xfr49SNQQodUTb1bD5iho7MFoCxBSmZMZjoxmOjGY6MD1mznTJj8ucbJt3VqgNy9IpNsVUz3RvLr2hU5nawrOeovwHF+YXebX9gMguP5Fwa5z4WLRmtvqyTKbAx34hw82bD5iho7MFSDc8/uwrCY1MHGwYU2BYZ8R4xs/LnGybd1YHHdMs4Blm8c8YFUWLtb6tPrt7pmZII5kAivkx7qYp4ZxMALoGBgEOqZ3+oFnkU4S0hjOVqT8QTrx0hOozp0i4+SUcPqHQST0CjMgMsu/7ysVmC6EFSIMonfkRJDHhGw+YoaOzYIeQo4/fexqZLmEGyA0JQpWRElsf09Y/LnGybd1Z+rNsv3uaa/ffWEEkwiiq8/Ze7ZLxDGAAEg9VBCUcPqGZcPSfK4zv+94JN53gWUnJ5icAudhiXIy+4uYSnO60G8GDf9wSLzvAUiH7OL3Jso7fKuX/ALChBfl92jMJGWdPuCMuYSusFUyAyV3T7gCZdl7ueWTF2k2PDyQPIJl6MXcC9g5+cfH+27Nycopq5394X+h4i42ef/G3/8QALBABAAIBAwMDAwUBAAMAAAAAAREhMQBBURAgYXGB8DBQkUBgobHBsNHh8f/aAAgBAQABPxD/AI0KeYI7+Of4aixeIR/L+ulmA2/xtAFQrtOhAj/iyNICrcA/M/xpXcUS/C/xoZJMfvYF5yV6pdIs9ACfkPk3dHNcSpnCW9x0ilZ7i/n1E8UUn3g9jSE1oynqjPmR9DRtezKVwMrwg/vMh75eY29/e5dIGBLnLY6OJtd11N1+36H/APGYCJcnAwPDJo0N8Q+rP+PJjQySY/d5tjSpAHLqXfGCNuu35XgWqlVVZV1HqPuP6vpXax9fONBIlQAZdSje0zAAk7xifH7vJgmRgDK8N3d4dD7/AEaunh1f06+hf2VjwrJCYADLrxf4pfm5ewqV/SQVd465QpY363brY+DgEAosH6hL0+AnETCO/W7dGFwwJIQE9fvkTreHEEweeFOxNcZ2rMesOiRNaLv8HSgYBuz0XnxKGD2Oz8BlUyVABlnXj01SLbfY+wqV/UHfief7WE8mKnKxYg3zbGEbaznwPVLWA2AoKKOnj7LwIgcv4AvTphTNC8sv4D2OpEp7seb0n0HjQAAAKA26kQCiD7EH8tQ+m7w+CK8AfRqZGyG+SkDyKa8M/qGX35ewqV/Unfief7WE8ncJc6hEvMY8Xz1D04dX9PEiCG5k/rJfdARo0xbcHkwOCZb+xnfief7VE8hvEdx/eX3NJwDm2VPKq9t+ZuJSRLWDASrqWmFfEO/8jAQfqWJFkwPd0RQEAOr+fpHfiefeGBuEP7uh77Z+OB+t/IOs4EOop2scgCieT78J5I1Cg3JT4W/+uvHpHSs66TESg7GLyyfjw7PBRwcyQtaDK0adiTB+W0PfQ75DBQaHEkpYbABvbVDjT+BA1Q2A8QD9cZM3yOCXK2FrQad2mGW7Kg3MtrQIrmCPJQevRUlSg3ypemf0ZBc7WqhXp4eSy8oeNMOwBmNhA3YOIV0CZhCRHCPcd+J59iJkF3boA0fKOnxw4Py8cjSarLUzlUHqeVdKJ+VWeVt6f0PoEpHhHQIEkEWEheTI8JnTau/gN26FJeEgo13qlTlLZEZkIKI0jpAwRQxKjQASrp45sntGFIPKmSLpD8LOMswekzE+enzXH0RPKRZHwboRvJNymT1Fy7z3T4EXS0S5VAFQR1Rl9W6ySYWBBdr9wMg17tO31T8J19Fal0Fzac6G9GaIKkKBEAGwB1aNE2WTA3SuC1gF06xQFX4kyjZb4AOsFl0cyBcd4JXAkIIGY4ZmJEzBXwI2vq1YkAKYM2hUQJSqP/lFWeTnEuVBLRHeP/PMxY2Mz3izCUTzIV6sqlWJ2nfiefXaO3VskksegCqAo+LS1nB4FsN0AUdxpSFg7kI+mktDggSYYAEhQFBCO0s02AlVXAG+kvmVg0vwfDuJHY+a4+gJ5USf4TIjammbKSiEXUrSYShaqqr0My8eVbq4AlVAAqgaPxaCwJusdQUuVsH3F0Apw9PT7+mitEVkF2EH8L37JQSkIUvyQcNvceo4a4hdlwD5G79Qh2+IlC3QA3U1dSD26g8Ba7pb9ZhJ1sZg1fxoE+gtz1wfEnMaRMEWiy2uP81dtXAt856JdRL5hucMAw7OHbo0laTSBLVUANJQR6MDC7gYSwDA7R34nn0H6cYUqHAAq6rG3jYA+UKcMlnpPgeRQZgFDdaN3RMqlA238SSmiNzJv1CH4dH5Cw/IkQWsE89UlCxYASxEETjSYpDQAKGwIbDmt2pBFEsTbt+a47xPJN6XBhMs38KgJaKd2laqAwAACgAAAOih2otAAtVQDUAkxwhEngYiyDYPubzspvmVnp85rOav1GgFjvDj+3YwpxKWS/332LwqZZ/u+nPVFTMPDpLGXI6sWCl0YKN3A2vAIAXkNl0xik4EDYOwb1FzaY9v8MQiVqlqCFMsFAKSJKQNBrfASYuNJVQFhQx3HfiefR1pCJ6qL8FV66z9EZhIjVLZIJAkJRJehIGFxpbmBElDsc78Fz5dZRUDQPW5FKOC+kKyMdxDtJwkwAFqu2hhgRowkmE8yMG1kaZsAISvNkfSNUtqWD2dCEYKpwMAOA7hPJop6ThJBmHMMDlUZNOAsLGVhUHuyq9ETOAJV2A1Fa2zQWM4JhbKZl9zpnb/AEHt/wARNgPBj+/Y0IsOyHvIrT4hCa+76fjZ6X4GJ7dWGs2EWU8ORxBfVHfiefSKROHJNjmZPjx1xTqMLEm5N9T9e0/IocgcibmhIQhKAg05jI7r6OzGGBMiPImg3IJbnfYo9u0wJmQlUO5QL7K5kfQE8ibBrVQvFJ8AKoCkpALdnU+d8ildg6IZmaIZH76U9CX7qK+qQ+mfb9wCLTcChHqPbsG4xJRTxEJyvcPOGtElbzABd3Ap9I0T8SYQ63s6hTYLYD9yfWO/E8+kfhe5hwh4IHt1CgwNaAIAAAFAdypUqVKgZ0DFeYlrBLU7vXf0IYBX4PY1sw8qAPymnUoIiZi+VKd1X6Ako/prtoLVYALVAt0iDHLI3BQxLBAFF9ALkDLGcqFCbi6fgNOEy+DacxJSfdWFWn1bPw/v2/5ypzeSM8pPXRTluyISI8J1OkeXF9tDWbNiIov8zDraA4ALGTyhdV7oJLK8c+XNBKg0BMKIg3C8TlZX0ysQt1dbMoFPKZ/KfWO/E8+jMyRYRdv1EKUxCYEj+Cffs3D6CaG17/WEmMgoiJL4EF4YH3U8vC4YIt9D6eLtvQxE0m5+c3pOfZBhTBskrcYRyIJZqQdsF7Mj3Xoa+FW8I/nRoay9vAgzu6AvkpMIkTAqRfP1PIDaE86msQqJVI+8Xvo/IicgcI7n1TvxPPoqVetusGEeFuAPkkV5H6JgwYMGDBgw6z5ISNgqZWPrzxMXSZb0lpBstxY5Gi6qdcjmKB4HREzhCETCOjw8xbL+cT/Fj7pHsDRWb2ivbS/MgRSI+iPY2TDLVVgAZV0CoU0z0LukkKWiQl/SIqIgVsHMAfI9TwDURKe4gNmxxnteWEKwqFg5YF9nvO/E8+ikCxhACbMNf/b0AFPHlPILEy7J9xLOb3vviSGAuv0M8TJmly1z6BM6i0CIbt3fvwVqz6QavvutBV5ov+KdXTXk8kjG6B4kwulA7hJ5DhEfukZFSSiVfRHk+PX0bIcUYAFqusuJlLlruyh9Cpf0waiBM3FuBS7+HrOroBJ+ENSPqQgkHIDd9YwXnB4QnsPRaSwIiDBOVjTAq0hsuySEwx5UbgCtAkwhUOFDGcbMJh2nfiefQ7Tk/SG+mkMD1jbYDPCP+YSRrR2Zg4+TS1cEtnAIBCRGROqpicCCAxNw7wKtQFznVETGKxKSwYAJ36JZsrZ2k5oSNAJmEJEcI/WniW11GwwsK2AoLYjTXlIAlAMN2ADAAY6JukYSIRHIm2snVPZOR3QZWQ29TpCS8xXdoOHAB90UMlP5XpzTyKb6KS0WEh9Th3L0YQKhRgAMq6ygA0oW+7KD0Kl6q2cFFcU2jLlGSUcUEuLyEgHBAaxn2vIkhfRXKujIoMBWyEzzHnR+RE5A4R3Op9M8GMT74J5aFCQx8rEonkeKduhyuSAYJALgDxq/t4o5Z4AEl5yD6XJMO1yOJFss20LKDNJc0ReA9BQ7A0CMHUBCVgDS4hoRGZ87P40fW0ECkIEnhI0lFVW1d+j+RE4UWI7OhZoJuQY7SpMtAe0O/E8+qLFwFLVYLNvAzXsv4ata0upOvOXfWDoZA0N52EF4Z0/kVOVNqu71Q4umGCi5BlWNySfoieJ5ElQJiMC5DnxSiRpJFrloJwiInjouWqIWyepUJuKb6z6lMwx94mJLUb/dD46dJt0sBVGgIohXhrAiwbl3VpQBM9K2cFFcU2jLlGSUwCcYD0YVAoDs9cHz07W+kID9U9Gxqrjgk+o/YlbTyiQLESZ1f28Ucs8ACS85B9KWPCwUZEbTdiKIijEJ0vCtJPvytlaO9uzjlEi0xsxYi8Q6vHyuUt21Kvad+J59TEyBIQg51YhE+fLIJPYyDCCXen+orgHhk3kNpCagpCmgypbRVUqqqq/o54nkzlieRCQwEG4Zr6ypa643gBeKxmP3etnBRXFNoy5RklMAnGA9GFQKA+olbTyiQLESZ1f28Ucs8ACS85B9K6YIpYhBpEpHTR2O1OWOFBONOQRUh6DHx6h0maEfw4iPM6Lou1P12HnRSsmJCsyt8ROlzaGHs2pnPJlw41EzCEbYxEHAOS7HBaZpEgSyEvXyX/NfJf8ANHZotKIB4e2bhvkHk9ZQXDR/EskbzMP/AA1k1Ir7Cy+2gAu2ieeNGsUAp+64++lGSJFyIuV/TUcQQ19yM1jC20AAAAUB2fJf818l/wA0ApDbSYLZIN+4QQjmJIdiUvXyX/NfJf8ANFTo6VSBdjtq0vzEhhyJkSxBMakJJKSq7ISbM6+S/wCa+S/5oNkouDE4wbZzGUqPuktZHIIonadG0RkDMgjawERH1kraeUSBYiTOpVmROvUDJ4Jjb94zqiqiEQWUjPaioHR1SRNy2LjDcPqc/wAtA5PugPOnhwGwqWK+EDdU0AAAAUB+8obJthmwSmzhJ1nFALbF5zlcMDT1wYcw3SI9C8aRSJCZHvUlkEW5vWOBXxZqVUPQ2DiNkdxrG4xiT4/lIV5/e9lzHt+HQDQG3UzhMbROPzp+24JHvpOcpKhmh66BGcWlj1/p6FaYUJ4AI+HTBLJBOVe2dAAAAKA/47H/2Q==;" vertex="1" parent="u3QGLT7VC1PCyvnw0tkP-28">
          <mxGeometry x="107" y="98" width="100" height="50" as="geometry" />
        </mxCell>
        <mxCell id="u3QGLT7VC1PCyvnw0tkP-31" style="edgeStyle=orthogonalEdgeStyle;rounded=0;orthogonalLoop=1;jettySize=auto;html=1;exitX=1;exitY=0.3333333333333333;exitDx=0;exitDy=0;exitPerimeter=0;entryX=-0.013;entryY=0.504;entryDx=0;entryDy=0;entryPerimeter=0;" edge="1" parent="1" source="u3QGLT7VC1PCyvnw0tkP-1" target="u3QGLT7VC1PCyvnw0tkP-28">
          <mxGeometry relative="1" as="geometry" />
        </mxCell>
        <mxCell id="u3QGLT7VC1PCyvnw0tkP-32" style="edgeStyle=orthogonalEdgeStyle;rounded=0;orthogonalLoop=1;jettySize=auto;html=1;entryX=0;entryY=0;entryDx=0;entryDy=45;entryPerimeter=0;" edge="1" parent="1" source="u3QGLT7VC1PCyvnw0tkP-28" target="u3QGLT7VC1PCyvnw0tkP-26">
          <mxGeometry relative="1" as="geometry" />
        </mxCell>
      </root>
    </mxGraphModel>
  </diagram>
</mxfile>
